G04 DipTrace 3.0.0.2*
G04 PCBFR2311.gbl*
%MOIN*%
G04 #@! TF.FileFunction,Copper,L2,Bot*
G04 #@! TF.Part,Single*
G04 #@! TA.AperFunction,Conductor*
%ADD11C,0.006*%
G04 #@! TA.AperFunction,CopperBalancing*
%ADD14C,0.025*%
G04 #@! TA.AperFunction,ComponentPad*
%ADD16R,0.066929X0.066929*%
%ADD17C,0.066929*%
G04 #@! TA.AperFunction,ViaPad*
%ADD20C,0.02*%
%FSLAX26Y26*%
G04*
G70*
G90*
G75*
G01*
G04 Bottom*
%LPD*%
X699441Y600409D2*
D11*
Y581850D1*
X992971Y600409D2*
Y569163D1*
X1005281Y1150352D2*
Y1131793D1*
D20*
X699441Y600409D3*
X992971D3*
X1005281Y1150352D3*
X561486Y1300381D2*
D14*
X1163615D1*
X1234386D2*
X1252776D1*
X561486Y1275512D2*
X1142130D1*
X561486Y1250643D2*
X1136516D1*
X561486Y1225774D2*
X1141740D1*
X561486Y1200906D2*
X1162444D1*
X432751Y1176037D2*
X442375D1*
X555626D2*
X1142375D1*
X561437Y1151168D2*
X1136564D1*
X432751Y1126299D2*
X441545D1*
X556457D2*
X1141545D1*
X432751Y1101430D2*
X461661D1*
X536340D2*
X1161661D1*
X432751Y1076562D2*
X442619D1*
X555382D2*
X1142619D1*
X561437Y1051693D2*
X1136564D1*
X432751Y1026824D2*
X441301D1*
X556701D2*
X1141301D1*
X432751Y1001955D2*
X460978D1*
X537024D2*
X1160978D1*
X432751Y977087D2*
X442864D1*
X555138D2*
X1142864D1*
X561437Y952218D2*
X1136564D1*
X432751Y927349D2*
X441056D1*
X556896D2*
X1141056D1*
X432751Y902480D2*
X460245D1*
X537756D2*
X1160245D1*
X432751Y877612D2*
X443156D1*
X554845D2*
X1143156D1*
X561388Y852743D2*
X1136564D1*
X432751Y827874D2*
X440861D1*
X557140D2*
X1140861D1*
X432751Y803005D2*
X459562D1*
X538440D2*
X1159562D1*
X432751Y778136D2*
X1143400D1*
X432751Y753268D2*
X1136613D1*
X432751Y728399D2*
X1140665D1*
X432751Y703530D2*
X468986D1*
X529016D2*
X1158928D1*
X432751Y678661D2*
X443693D1*
X554308D2*
X1143693D1*
X561340Y653793D2*
X1136661D1*
X432751Y628924D2*
X440470D1*
X557531D2*
X1140470D1*
X432751Y604055D2*
X458244D1*
X539757D2*
X1136516D1*
X432751Y579186D2*
X443986D1*
X554016D2*
X1136516D1*
X561340Y554318D2*
X1136516D1*
X432751Y529449D2*
X440276D1*
X557726D2*
X1136516D1*
X432751Y504580D2*
X457657D1*
X540344D2*
X1136516D1*
X432751Y479711D2*
X1252776D1*
X645568Y454843D2*
X1252776D1*
X451535Y1310214D2*
X558965D1*
Y1190285D1*
X543681D1*
X550129Y1181581D1*
X554400Y1173197D1*
X557307Y1164248D1*
X558780Y1154954D1*
Y1145545D1*
X557307Y1136251D1*
X554400Y1127302D1*
X550129Y1118917D1*
X544597Y1111306D1*
X537944Y1104652D1*
X532059Y1100276D1*
X537944Y1095846D1*
X544597Y1089193D1*
X550129Y1081581D1*
X554400Y1073197D1*
X557307Y1064248D1*
X558780Y1054954D1*
Y1045545D1*
X557307Y1036251D1*
X554400Y1027302D1*
X550129Y1018917D1*
X544597Y1011306D1*
X537944Y1004652D1*
X532059Y1000276D1*
X537944Y995846D1*
X544597Y989193D1*
X550129Y981581D1*
X554400Y973197D1*
X557307Y964248D1*
X558780Y954954D1*
Y945545D1*
X557307Y936251D1*
X554400Y927302D1*
X550129Y918917D1*
X544597Y911306D1*
X537944Y904652D1*
X532059Y900276D1*
X537944Y895846D1*
X544597Y889193D1*
X550129Y881581D1*
X554400Y873197D1*
X557307Y864248D1*
X558780Y854954D1*
Y845545D1*
X557307Y836251D1*
X554400Y827302D1*
X550129Y818917D1*
X544597Y811306D1*
X537944Y804652D1*
X530332Y799121D1*
X521948Y794849D1*
X512999Y791942D1*
X503705Y790470D1*
X494295D1*
X485001Y791942D1*
X476052Y794849D1*
X467668Y799121D1*
X460056Y804652D1*
X453403Y811306D1*
X447871Y818917D1*
X443600Y827302D1*
X440693Y836251D1*
X439220Y845545D1*
Y854954D1*
X440693Y864248D1*
X443600Y873197D1*
X447871Y881581D1*
X453403Y889193D1*
X460056Y895846D1*
X465941Y900223D1*
X460056Y904652D1*
X453403Y911306D1*
X447871Y918917D1*
X443600Y927302D1*
X440693Y936251D1*
X439220Y945545D1*
Y954954D1*
X440693Y964248D1*
X443600Y973197D1*
X447871Y981581D1*
X453403Y989193D1*
X460056Y995846D1*
X465941Y1000223D1*
X460056Y1004652D1*
X453403Y1011306D1*
X447871Y1018917D1*
X443600Y1027302D1*
X440693Y1036251D1*
X439220Y1045545D1*
Y1054954D1*
X440693Y1064248D1*
X443600Y1073197D1*
X447871Y1081581D1*
X453403Y1089193D1*
X460056Y1095846D1*
X465941Y1100223D1*
X460056Y1104652D1*
X453403Y1111306D1*
X447871Y1118917D1*
X443600Y1127302D1*
X440693Y1136251D1*
X439220Y1145545D1*
Y1154954D1*
X440693Y1164248D1*
X443600Y1173197D1*
X447871Y1181581D1*
X453403Y1189193D1*
X454413Y1190287D1*
X439035Y1190285D1*
Y1310214D1*
X451535D1*
X558780Y645545D2*
X557307Y636251D1*
X554400Y627302D1*
X550129Y618917D1*
X544597Y611306D1*
X537944Y604652D1*
X532059Y600276D1*
X537944Y595846D1*
X544597Y589193D1*
X550129Y581581D1*
X554400Y573197D1*
X557307Y564248D1*
X558780Y554954D1*
Y545545D1*
X557307Y536251D1*
X554400Y527302D1*
X550129Y518917D1*
X544597Y511306D1*
X537944Y504652D1*
X530332Y499121D1*
X521948Y494849D1*
X512999Y491942D1*
X503705Y490470D1*
X494295D1*
X485001Y491942D1*
X476052Y494849D1*
X467668Y499121D1*
X460056Y504652D1*
X453403Y511306D1*
X447871Y518917D1*
X443600Y527302D1*
X440693Y536251D1*
X439220Y545545D1*
Y554954D1*
X440693Y564248D1*
X443600Y573197D1*
X447871Y581581D1*
X453403Y589193D1*
X460056Y595846D1*
X465941Y600223D1*
X460056Y604652D1*
X453403Y611306D1*
X447871Y618917D1*
X443600Y627302D1*
X440693Y636251D1*
X439220Y645545D1*
Y654954D1*
X440693Y664248D1*
X443600Y673197D1*
X447871Y681581D1*
X453403Y689193D1*
X460056Y695846D1*
X467668Y701378D1*
X476052Y705650D1*
X485001Y708556D1*
X494295Y710029D1*
X503705D1*
X512999Y708556D1*
X521948Y705650D1*
X530332Y701378D1*
X537944Y695846D1*
X544597Y689193D1*
X550129Y681581D1*
X554400Y673197D1*
X557307Y664248D1*
X558780Y654954D1*
Y645545D1*
X1151535Y610214D2*
X1154319D1*
X1147871Y618917D1*
X1143600Y627302D1*
X1140693Y636251D1*
X1139220Y645545D1*
Y654954D1*
X1140693Y664248D1*
X1143600Y673197D1*
X1147871Y681581D1*
X1153403Y689193D1*
X1160056Y695846D1*
X1165941Y700223D1*
X1160056Y704652D1*
X1153403Y711306D1*
X1147871Y718917D1*
X1143600Y727302D1*
X1140693Y736251D1*
X1139220Y745545D1*
Y754954D1*
X1140693Y764248D1*
X1143600Y773197D1*
X1147871Y781581D1*
X1153403Y789193D1*
X1160056Y795846D1*
X1165941Y800223D1*
X1160056Y804652D1*
X1153403Y811306D1*
X1147871Y818917D1*
X1143600Y827302D1*
X1140693Y836251D1*
X1139220Y845545D1*
Y854954D1*
X1140693Y864248D1*
X1143600Y873197D1*
X1147871Y881581D1*
X1153403Y889193D1*
X1160056Y895846D1*
X1165941Y900223D1*
X1160056Y904652D1*
X1153403Y911306D1*
X1147871Y918917D1*
X1143600Y927302D1*
X1140693Y936251D1*
X1139220Y945545D1*
Y954954D1*
X1140693Y964248D1*
X1143600Y973197D1*
X1147871Y981581D1*
X1153403Y989193D1*
X1160056Y995846D1*
X1165941Y1000223D1*
X1160056Y1004652D1*
X1153403Y1011306D1*
X1147871Y1018917D1*
X1143600Y1027302D1*
X1140693Y1036251D1*
X1139220Y1045545D1*
Y1054954D1*
X1140693Y1064248D1*
X1143600Y1073197D1*
X1147871Y1081581D1*
X1153403Y1089193D1*
X1160056Y1095846D1*
X1165941Y1100223D1*
X1160056Y1104652D1*
X1153403Y1111306D1*
X1147871Y1118917D1*
X1143600Y1127302D1*
X1140693Y1136251D1*
X1139220Y1145545D1*
Y1154954D1*
X1140693Y1164248D1*
X1143600Y1173197D1*
X1147871Y1181581D1*
X1153403Y1189193D1*
X1160056Y1195846D1*
X1165941Y1200223D1*
X1160056Y1204652D1*
X1153403Y1211306D1*
X1147871Y1218917D1*
X1143600Y1227302D1*
X1140693Y1236251D1*
X1139220Y1245545D1*
Y1254954D1*
X1140693Y1264248D1*
X1143600Y1273197D1*
X1147871Y1281581D1*
X1153403Y1289193D1*
X1160056Y1295846D1*
X1167668Y1301378D1*
X1176052Y1305650D1*
X1185001Y1308556D1*
X1194295Y1310029D1*
X1203705D1*
X1212999Y1308556D1*
X1221948Y1305650D1*
X1230332Y1301378D1*
X1237944Y1295846D1*
X1244597Y1289193D1*
X1250129Y1281581D1*
X1254400Y1273197D1*
X1255260Y1270867D1*
X1255251Y1325249D1*
X430251D1*
X430343Y456407D1*
X1255272Y450341D1*
X1255251Y490240D1*
X1139035Y490285D1*
Y610214D1*
X1151535D1*
D16*
X499000Y1250249D3*
D17*
Y1150249D3*
Y1050249D3*
Y950249D3*
Y850249D3*
Y750249D3*
Y650249D3*
Y550249D3*
D16*
X1199000D3*
D17*
Y650249D3*
Y750249D3*
Y850249D3*
Y950249D3*
Y1050249D3*
Y1150249D3*
Y1250249D3*
M02*
