G04 DipTrace 3.0.0.2*
G04 PCBFR2311.gtl*
%MOIN*%
G04 #@! TF.FileFunction,Copper,L1,Top*
G04 #@! TF.Part,Single*
G04 #@! TA.AperFunction,Conductor*
%ADD11C,0.006*%
%ADD15R,0.070866X0.015748*%
G04 #@! TA.AperFunction,ComponentPad*
%ADD16R,0.066929X0.066929*%
%ADD17C,0.066929*%
%ADD18R,0.059055X0.051181*%
%ADD19R,0.051181X0.059055*%
G04 #@! TA.AperFunction,ViaPad*
%ADD20C,0.02*%
%FSLAX26Y26*%
G04*
G70*
G90*
G75*
G01*
G04 Top*
%LPD*%
X736748Y816764D2*
D11*
X701625D1*
X661756Y856633D1*
X505383D1*
X499000Y850249D1*
X817990Y1075360D2*
Y962871D1*
X836738Y944123D1*
Y844134D1*
X833728Y841125D1*
X811740Y819136D1*
X739121D1*
X736748Y816764D1*
X774244Y600409D2*
X859207D1*
X918168D1*
X859207D2*
Y815646D1*
X833728Y841125D1*
X736748Y791173D2*
X539924D1*
X499000Y750249D1*
X699441Y600409D2*
D3*
X992971D2*
D3*
X1005281Y1150352D2*
D3*
X736748Y842354D2*
X701031D1*
X586764Y956622D1*
X505373D1*
X499000Y950249D1*
X817990Y1150163D2*
X930289D1*
X930478Y1150352D1*
X736748Y842354D2*
X803711D1*
X811740Y850383D1*
Y925375D1*
X668005Y1069110D1*
Y1144102D1*
X674255Y1150352D1*
X817801D1*
X817990Y1150163D1*
X736748Y919126D2*
Y931625D1*
X574265Y1094108D1*
Y1174984D1*
X499000Y1250249D1*
X736748Y893535D2*
X706094D1*
X574265Y1025365D1*
Y1062861D1*
X486877Y1150249D1*
X499000D1*
X736748Y867945D2*
X700438D1*
X580514Y987869D1*
X561381D1*
X499000Y1050249D1*
X736748Y765583D2*
X614333D1*
X499000Y650249D1*
X736748Y739992D2*
X688743D1*
X499000Y550249D1*
X965102Y739992D2*
X1009257D1*
X1199000Y550249D1*
X965094Y765583D2*
X1083667D1*
X1199000Y650249D1*
X965094Y791173D2*
X1158076D1*
X1199000Y750249D1*
X965094Y816764D2*
X1165514D1*
X1199000Y850249D1*
X965094Y842354D2*
X1091105D1*
X1199000Y950249D1*
X965094Y867945D2*
X1016696D1*
X1199000Y1050249D1*
X965094Y893535D2*
X1011126D1*
X1130457Y1012866D1*
Y1125354D1*
X1136706Y1131604D1*
X1180354D1*
X1199000Y1150249D1*
X965094Y919126D2*
X1005470D1*
X1111709Y1025365D1*
Y1162958D1*
X1199000Y1250249D1*
D20*
X699441Y600409D3*
X992971D3*
X1005281Y1150352D3*
D15*
X736748Y919126D3*
Y893535D3*
Y867945D3*
Y842354D3*
Y816764D3*
Y791173D3*
Y765583D3*
Y739992D3*
X965102D3*
X965094Y765583D3*
Y791173D3*
Y816764D3*
Y842354D3*
Y867945D3*
Y893535D3*
Y919126D3*
D16*
X499000Y1250249D3*
D17*
Y1150249D3*
Y1050249D3*
Y950249D3*
Y850249D3*
Y750249D3*
Y650249D3*
Y550249D3*
D16*
X1199000D3*
D17*
Y650249D3*
Y750249D3*
Y850249D3*
Y950249D3*
Y1050249D3*
Y1150249D3*
Y1250249D3*
D18*
X817990Y1075360D3*
Y1150163D3*
D19*
X699441Y600409D3*
X774244D3*
X992971D3*
X918168D3*
X930478Y1150352D3*
X1005281D3*
M02*
