G04 DipTrace 3.0.0.2*
G04 PCBFR2311.gbo*
%MOIN*%
G04 #@! TF.FileFunction,Legend,Bot*
G04 #@! TF.Part,Single*
%ADD37C,0.006176*%
%ADD38C,0.003088*%
%FSLAX26Y26*%
G04*
G70*
G90*
G75*
G01*
G04 BotSilk*
%LPD*%
X995674Y922008D2*
D37*
X978430D1*
X972726Y923910D1*
X970781Y925855D1*
X968880Y929658D1*
Y935406D1*
X970781Y939208D1*
X972726Y941154D1*
X978430Y943055D1*
X995674D1*
Y902863D1*
X956528Y943055D2*
Y902863D1*
Y922008D2*
X950780Y927756D1*
X946934Y929658D1*
X941186D1*
X937383Y927756D1*
X935482Y922008D1*
Y902863D1*
X923130Y943055D2*
X921229Y941154D1*
X919284Y943055D1*
X921229Y945001D1*
X923130Y943055D1*
X921229Y929658D2*
Y902863D1*
X906932Y943055D2*
Y902863D1*
X894581Y943055D2*
X892679Y941154D1*
X890734Y943055D1*
X892679Y945001D1*
X894581Y943055D1*
X892679Y929658D2*
Y902863D1*
X878383Y929658D2*
Y889466D1*
Y923910D2*
X874536Y927712D1*
X870733Y929658D1*
X864985D1*
X861138Y927712D1*
X857336Y923910D1*
X855390Y918162D1*
Y914315D1*
X857336Y908611D1*
X861138Y904764D1*
X864985Y902863D1*
X870733D1*
X874536Y904764D1*
X878383Y908611D1*
X792662Y943055D2*
X796465Y941198D1*
X800312Y937351D1*
X802213Y933505D1*
X804158Y927756D1*
Y918206D1*
X802213Y912458D1*
X800312Y908655D1*
X796465Y904809D1*
X792662Y902907D1*
X785013D1*
X781166Y904809D1*
X777364Y908655D1*
X775462Y912458D1*
X773517Y918206D1*
Y927756D1*
X775462Y933505D1*
X777364Y937351D1*
X781166Y941198D1*
X785013Y943055D1*
X792662D1*
X786914Y910557D2*
X775462Y899061D1*
X761165Y929658D2*
Y910512D1*
X759264Y904809D1*
X755417Y902863D1*
X749669D1*
X745867Y904809D1*
X740119Y910512D1*
Y929658D2*
Y902863D1*
X727767Y943055D2*
X725866Y941154D1*
X723921Y943055D1*
X725866Y945001D1*
X727767Y943055D1*
X725866Y929658D2*
Y902863D1*
X711569Y929658D2*
Y902863D1*
Y922008D2*
X705821Y927756D1*
X701974Y929658D1*
X696271D1*
X692424Y927756D1*
X690523Y922008D1*
Y902863D1*
X678171Y929658D2*
Y902863D1*
Y922008D2*
X672423Y927756D1*
X668576Y929658D1*
X662873D1*
X659026Y927756D1*
X657125Y922008D1*
Y902863D1*
X920684Y836419D2*
X903484D1*
X897736Y838364D1*
X895790Y840266D1*
X893889Y844068D1*
Y847915D1*
X895790Y851718D1*
X897736Y853663D1*
X903484Y855564D1*
X920684D1*
Y815372D1*
X907286Y836419D2*
X893889Y815372D1*
X881538Y830671D2*
X858590D1*
Y834518D1*
X860491Y838364D1*
X862392Y840266D1*
X866239Y842167D1*
X871987D1*
X875790Y840266D1*
X879636Y836419D1*
X881538Y830671D1*
Y826868D1*
X879636Y821120D1*
X875790Y817318D1*
X871987Y815372D1*
X866239D1*
X862392Y817318D1*
X858590Y821120D1*
X846238Y842167D2*
X834742Y815372D1*
X823291Y842167D1*
X810939Y847871D2*
X807092Y849816D1*
X801344Y855520D1*
Y815372D1*
X787092Y819219D2*
X788993Y817274D1*
X787092Y815372D1*
X785146Y817274D1*
X787092Y819219D1*
X761299Y855520D2*
X767047Y853619D1*
X770894Y847871D1*
X772795Y838320D1*
Y832572D1*
X770894Y823022D1*
X767047Y817274D1*
X761299Y815372D1*
X757496D1*
X751748Y817274D1*
X747946Y823022D1*
X746000Y832572D1*
Y838320D1*
X747946Y847871D1*
X751748Y853619D1*
X757496Y855520D1*
X761299D1*
X747946Y847871D2*
X770894Y823022D1*
X995191Y736013D2*
D38*
Y756109D1*
X1002840Y736013D1*
X1010489Y756109D1*
Y736013D1*
X975618Y753235D2*
X977519Y755158D1*
X980393Y756109D1*
X984218D1*
X987092Y755158D1*
X989015Y753235D1*
Y751334D1*
X988042Y749410D1*
X987092Y748460D1*
X985190Y747509D1*
X979442Y745586D1*
X977519Y744635D1*
X976568Y743662D1*
X975618Y741761D1*
Y738887D1*
X977519Y736986D1*
X980393Y736013D1*
X984218D1*
X987092Y736986D1*
X989015Y738887D1*
X969442Y745586D2*
X960820D1*
X957968Y746536D1*
X956995Y747509D1*
X956045Y749410D1*
Y752284D1*
X956995Y754186D1*
X957968Y755158D1*
X960820Y756109D1*
X969442D1*
Y736013D1*
X940296D2*
Y756087D1*
X949869Y742712D1*
X935521D1*
X927422Y756087D2*
X916921D1*
X922647Y748438D1*
X919773D1*
X917871Y747487D1*
X916921Y746536D1*
X915948Y743662D1*
Y741761D1*
X916921Y738887D1*
X918822Y736964D1*
X921696Y736013D1*
X924570D1*
X927422Y736964D1*
X928373Y737936D1*
X929345Y739838D1*
X904024Y756087D2*
X906898Y755136D1*
X908822Y752262D1*
X909772Y747487D1*
Y744613D1*
X908822Y739838D1*
X906898Y736964D1*
X904024Y736013D1*
X902123D1*
X899249Y736964D1*
X897348Y739838D1*
X896375Y744613D1*
Y747487D1*
X897348Y752262D1*
X899249Y755136D1*
X902123Y756087D1*
X904024D1*
X897348Y752262D2*
X908822Y739838D1*
X877753Y756109D2*
X890199D1*
Y736013D1*
Y746536D2*
X882550D1*
X871577D2*
X862977D1*
X860103Y747509D1*
X859130Y748460D1*
X858180Y750361D1*
Y752284D1*
X859130Y754186D1*
X860103Y755158D1*
X862977Y756109D1*
X871577D1*
Y736013D1*
X864878Y746536D2*
X858180Y736013D1*
X851031Y751312D2*
Y752262D1*
X850080Y754186D1*
X849130Y755136D1*
X847206Y756087D1*
X843382D1*
X841480Y755136D1*
X840530Y754186D1*
X839557Y752262D1*
Y750361D1*
X840530Y748438D1*
X842431Y745586D1*
X852004Y736013D1*
X838606D1*
X830507Y756087D2*
X820006D1*
X825732Y748438D1*
X822858D1*
X820957Y747487D1*
X820006Y746536D1*
X819033Y743662D1*
Y741761D1*
X820006Y738887D1*
X821907Y736964D1*
X824781Y736013D1*
X827655D1*
X830507Y736964D1*
X831458Y737936D1*
X832431Y739838D1*
X812858Y752262D2*
X810934Y753235D1*
X808060Y756087D1*
Y736013D1*
X801885Y752262D2*
X799961Y753235D1*
X797087Y756087D1*
Y736013D1*
X771471Y756109D2*
Y736013D1*
X762849D1*
X759975Y736986D1*
X759024Y737936D1*
X758074Y739838D1*
Y742712D1*
X759024Y744635D1*
X759975Y745586D1*
X762849Y746536D1*
X759975Y747509D1*
X759024Y748460D1*
X758074Y750361D1*
Y752284D1*
X759024Y754186D1*
X759975Y755158D1*
X762849Y756109D1*
X771471D1*
Y746536D2*
X762849D1*
X751898Y749410D2*
Y736013D1*
Y743662D2*
X750925Y746536D1*
X749024Y748460D1*
X747101Y749410D1*
X744227D1*
X738051Y743662D2*
X726577D1*
Y745586D1*
X727528Y747509D1*
X728478Y748460D1*
X730402Y749410D1*
X733276D1*
X735177Y748460D1*
X737100Y746536D1*
X738051Y743662D1*
Y741761D1*
X737100Y738887D1*
X735177Y736986D1*
X733276Y736013D1*
X730402D1*
X728478Y736986D1*
X726577Y738887D1*
X708927Y749410D2*
Y736013D1*
Y746536D2*
X710829Y748460D1*
X712752Y749410D1*
X715604D1*
X717527Y748460D1*
X719429Y746536D1*
X720401Y743662D1*
Y741761D1*
X719429Y738887D1*
X717527Y736986D1*
X715604Y736013D1*
X712752D1*
X710829Y736986D1*
X708927Y738887D1*
X702752Y756109D2*
Y736013D1*
X693179Y749410D2*
X702752Y739838D1*
X698927Y743662D2*
X692228Y736013D1*
X681277Y749410D2*
X683179Y748460D1*
X685102Y746536D1*
X686053Y743662D1*
Y741761D1*
X685102Y738887D1*
X683179Y736986D1*
X681277Y736013D1*
X678403D1*
X676480Y736986D1*
X674579Y738887D1*
X673606Y741761D1*
Y743662D1*
X674579Y746536D1*
X676480Y748460D1*
X678403Y749410D1*
X681277D1*
X667430D2*
Y739838D1*
X666480Y736986D1*
X664556Y736013D1*
X661682D1*
X659781Y736986D1*
X656907Y739838D1*
Y749410D2*
Y736013D1*
X647857Y756109D2*
Y739838D1*
X646907Y736986D1*
X644983Y736013D1*
X643082D1*
X650731Y749410D2*
X644033D1*
M02*
