G04 DipTrace 3.0.0.2*
G04 PCBFR2311.gto*
%MOIN*%
G04 #@! TF.FileFunction,Legend,Top*
G04 #@! TF.Part,Single*
%ADD10C,0.009843*%
%ADD36C,0.00772*%
%FSLAX26Y26*%
G04*
G70*
G90*
G75*
G01*
G04 TopSilk*
%LPD*%
X787939Y935859D2*
D10*
Y723259D1*
X913911Y935859D2*
Y723259D1*
X787939D2*
X913911D1*
X787939Y935859D2*
X831236D1*
X870614D2*
X913911D1*
X831236D2*
G03X870614Y935859I19689J23D01*
G01*
X549002Y1300213D2*
X449000D1*
Y500286D1*
X549002D1*
Y1300213D1*
X1148998Y500286D2*
X1249000D1*
Y1300213D1*
X1148998D1*
Y500286D1*
X658081Y574839D2*
Y625980D1*
X1034331D2*
Y574839D1*
X889118Y1124781D2*
Y1175923D1*
X820462Y1009082D2*
D36*
Y973212D1*
X822839Y966027D1*
X827647Y961274D1*
X834832Y958842D1*
X839585D1*
X846770Y961274D1*
X851579Y966027D1*
X853956Y973212D1*
Y1009082D1*
X869395Y999465D2*
X874203Y1001897D1*
X881388Y1009027D1*
Y958842D1*
X524710Y1392370D2*
Y1354124D1*
X522334Y1346939D1*
X519902Y1344562D1*
X515148Y1342130D1*
X510340D1*
X505587Y1344562D1*
X503210Y1346939D1*
X500778Y1354124D1*
Y1358877D1*
X540149Y1382753D2*
X544958Y1385185D1*
X552143Y1392315D1*
Y1342130D1*
X1159039Y1392370D2*
Y1354124D1*
X1156662Y1346939D1*
X1154230Y1344562D1*
X1149477Y1342130D1*
X1144669D1*
X1139916Y1344562D1*
X1137539Y1346939D1*
X1135107Y1354124D1*
Y1358877D1*
X1176910Y1380377D2*
Y1382753D1*
X1179287Y1387562D1*
X1181663Y1389938D1*
X1186472Y1392315D1*
X1196033D1*
X1200786Y1389938D1*
X1203163Y1387562D1*
X1205595Y1382753D1*
Y1378000D1*
X1203163Y1373192D1*
X1198410Y1366062D1*
X1174478Y1342130D1*
X1207972D1*
X739171Y1082298D2*
Y1103798D1*
X736739Y1110983D1*
X734362Y1113415D1*
X729609Y1115792D1*
X724801D1*
X720047Y1113415D1*
X717616Y1110983D1*
X715239Y1103798D1*
Y1082298D1*
X765479D1*
X739171Y1099045D2*
X765479Y1115791D1*
X724856Y1131231D2*
X722424Y1136039D1*
X715294Y1143224D1*
X765479D1*
X843282Y1217153D2*
X793097D1*
X826535Y1193221D1*
Y1229091D1*
X843282Y1254092D2*
X793097Y1278024D1*
Y1244530D1*
X793042Y1293463D2*
X843282D1*
X809789Y1317395D2*
X833720Y1293463D1*
X824159Y1303024D2*
X843282Y1319771D1*
X733177Y691222D2*
X730800Y695975D1*
X725992Y700783D1*
X721238Y703160D1*
X711677D1*
X706868Y700783D1*
X702115Y695975D1*
X699683Y691222D1*
X697307Y684037D1*
Y672043D1*
X699683Y664914D1*
X702115Y660105D1*
X706868Y655352D1*
X711677Y652920D1*
X721238D1*
X725992Y655352D1*
X730800Y660105D1*
X733177Y664914D1*
X748616Y693543D2*
X753424Y695975D1*
X760609Y703105D1*
Y652920D1*
X678809Y544306D2*
X683618Y546738D1*
X690803Y553868D1*
Y503683D1*
X706242Y537177D2*
Y503683D1*
Y527615D2*
X713427Y534800D1*
X718236Y537177D1*
X725365D1*
X730174Y534800D1*
X732551Y527615D1*
Y503683D1*
X779107Y553923D2*
X747990D1*
Y503683D1*
Y529991D2*
X767113D1*
X956923Y691222D2*
X954546Y695975D1*
X949738Y700783D1*
X944985Y703160D1*
X935423D1*
X930614Y700783D1*
X925861Y695975D1*
X923429Y691222D1*
X921053Y684037D1*
Y672043D1*
X923429Y664914D1*
X925861Y660105D1*
X930614Y655352D1*
X935423Y652920D1*
X944985D1*
X949738Y655352D1*
X954546Y660105D1*
X956923Y664914D1*
X974794Y691167D2*
Y693543D1*
X977170Y698352D1*
X979547Y700728D1*
X984355Y703105D1*
X993917D1*
X998670Y700728D1*
X1001047Y698352D1*
X1003479Y693543D1*
Y688790D1*
X1001047Y683982D1*
X996294Y676852D1*
X972362Y652920D1*
X1005855D1*
X888839Y544306D2*
X893648Y546738D1*
X900833Y553868D1*
Y503683D1*
X930642Y553868D2*
X923457Y551491D1*
X918649Y544306D1*
X916272Y532368D1*
Y525183D1*
X918649Y513245D1*
X923457Y506060D1*
X930642Y503683D1*
X935395D1*
X942580Y506060D1*
X947333Y513245D1*
X949765Y525183D1*
Y532368D1*
X947333Y544306D1*
X942580Y551491D1*
X935395Y553868D1*
X930642D1*
X947333Y544306D2*
X918649Y513245D1*
X965205Y537177D2*
Y513245D1*
X967581Y506115D1*
X972390Y503683D1*
X979575D1*
X984328Y506115D1*
X991513Y513245D1*
Y537177D2*
Y503683D1*
X1038069Y553923D2*
X1006952D1*
Y503683D1*
Y529991D2*
X1026075D1*
X953463Y1241164D2*
X951087Y1245917D1*
X946278Y1250726D1*
X941525Y1253102D1*
X931964D1*
X927155Y1250726D1*
X922402Y1245917D1*
X919970Y1241164D1*
X917593Y1233979D1*
Y1221986D1*
X919970Y1214856D1*
X922402Y1210047D1*
X927155Y1205294D1*
X931964Y1202862D1*
X941525D1*
X946278Y1205294D1*
X951087Y1210047D1*
X953463Y1214856D1*
X973711Y1253047D2*
X999964D1*
X985649Y1233924D1*
X992834D1*
X997588Y1231547D1*
X999964Y1229171D1*
X1002396Y1221986D1*
Y1217232D1*
X999964Y1210047D1*
X995211Y1205239D1*
X988026Y1202862D1*
X980841D1*
X973711Y1205239D1*
X971335Y1207671D1*
X968903Y1212424D1*
X909846Y1094249D2*
X914655Y1096680D1*
X921840Y1103810D1*
Y1053625D1*
X937279Y1087119D2*
Y1053625D1*
Y1077557D2*
X944464Y1084742D1*
X949272Y1087119D1*
X956402D1*
X961211Y1084742D1*
X963587Y1077557D1*
Y1053625D1*
X1010143Y1103865D2*
X979027D1*
Y1053625D1*
Y1079934D2*
X998150D1*
M02*
